# xmcd
# 
# Track frame offsets:
#     150
#     19424
#     30034
#     48022
#     59746
#     73866
#     92921
#     107262
#     131847
#     148894
#     161793
#     180695
#     193135
# 
# Disc length: 2740
# 
# Revision: 0
# Processed by: cddbd v1.5.2PL0 Copyright (c) Steve Scherf et al.
# Submitted via: BonkEnc v1.0.15
# 
DISCID=bc0ab20d
DTITLE=Various Artist - "Hurt Me So Bad" - the blues of Lightnin' Hopkins
DYEAR=0
DGENRE=Blues
TTITLE0=LIGHTNIN' HOPKINS - Vietnam War Part 1 and 2
TTITLE1=LIGHTNIN' HOPKINS - Coffee House Blues
TTITLE2=LIGHTNIN' HOPKINS - Devil Is Watching You
TTITLE3=LIGHTNIN' HOPKINS - Bad Luck And Trouble
TTITLE4=LIGHTNIN' HOPKINS - Move On Out Part 2
TTITLE5=LIGHTNIN' HOPKINS - Ride In Your New Automobile
TTITLE6=LIGHTNIN' HOPKINS - Tell My Pretty Mama
TTITLE7=LIGHTNIN' HOPKINS - Walk A Long Time
TTITLE8=LIGHTNIN' HOPKINS - Santa
TTITLE9=LIGHTNIN' HOPKINS - Needed Time
TTITLE10=LIGHTNIN' HOPKINS - Little School Girl
TTITLE11=BLIND LEMON JEFFERSON - Gone Dead On You Blues
TTITLE12=TEXAS ALEXANDER - Easy Rider Blues
EXTD=Blues and Soul Records No.54
EXTT0=
EXTT1=
EXTT2=
EXTT3=
EXTT4=
EXTT5=
EXTT6=
EXTT7=
EXTT8=
EXTT9=
EXTT10=
EXTT11=
EXTT12=
PLAYORDER=
